<svg preserveAspectRatio="none" width="100%" height="100%" overflow="visible" style="display: block;" viewBox="0 0 17.7663 30.2496" fill="none" xmlns="http://www.w3.org/2000/svg">
<g id="Group 3023">
<path id="Rectangle 4219" d="M13.2351 29.4996L14.9998 21.4996H12.8998H2.99984L4.76454 29.4996H13.2351Z" stroke="var(--stroke-0, #2F3438)" stroke-width="1.5" stroke-linecap="round" stroke-linejoin="round"/>
<path id="Rectangle 4220" d="M3.1665 21.4996H2.99984C2.44755 21.4996 1.99984 21.0519 1.99984 20.4996V18.4996C1.99984 17.9473 2.44755 17.4996 2.99984 17.4996H14.9998C15.5521 17.4996 15.9998 17.9473 15.9998 18.4996V20.4996C15.9998 21.0519 15.5521 21.4996 14.9998 21.4996H14.8332" stroke="var(--stroke-0, #2F3438)" stroke-width="1.5" stroke-linecap="round" stroke-linejoin="round"/>
<line id="Line 104" x1="8.84994" y1="17.4996" x2="8.84994" y2="12.4996" stroke="var(--stroke-0, #2F3438)" stroke-width="1.5"/>
<path id="Ellipse 150" d="M16.847 5.46551C16.8883 5.46112 16.9173 5.47437 16.9378 5.4948C16.9583 5.5153 16.9724 5.54436 16.9681 5.58562C16.5421 9.59134 13.3576 12.7758 9.35189 13.2018C9.31062 13.2062 9.28156 13.1921 9.26107 13.1716C9.24063 13.151 9.22738 13.122 9.23177 13.0807C9.65783 9.07518 12.8414 5.89157 16.847 5.46551Z" stroke="var(--stroke-0, #2F3438)" stroke-width="1.5" stroke-linejoin="round"/>
<path id="Ellipse 151" d="M0.919271 5.46551C0.878006 5.46112 0.848972 5.47437 0.828451 5.4948C0.807956 5.5153 0.793845 5.54436 0.798178 5.58562C1.22417 9.59134 4.40868 12.7758 8.41439 13.2018C8.45565 13.2062 8.48471 13.1921 8.50521 13.1716C8.52565 13.151 8.53889 13.122 8.53451 13.0807C8.10844 9.07518 4.92484 5.89157 0.919271 5.46551Z" stroke="var(--stroke-0, #2F3438)" stroke-width="1.5" stroke-linejoin="round"/>
<path id="Ellipse 152" d="M8.96825 1.21488C8.94217 1.1826 8.91228 1.17144 8.88331 1.17138C8.85433 1.17138 8.8238 1.18195 8.79769 1.21419C6.26645 4.34788 6.26645 8.85145 8.79769 11.9851C8.8238 12.0174 8.85433 12.028 8.88332 12.028C8.91228 12.0279 8.94218 12.0167 8.96825 11.9844C11.4993 8.85081 11.4993 4.34851 8.96825 1.21488Z" stroke="var(--stroke-0, #2F3438)" stroke-width="1.5" stroke-linejoin="round"/>
</g>
</svg>
