<svg preserveAspectRatio="none" width="100%" height="100%" overflow="visible" style="display: block;" viewBox="0 0 27.5 19.5" fill="none" xmlns="http://www.w3.org/2000/svg">
<g id="Group 3031">
<path id="Vector" d="M25.75 11.75H1.75C1.19772 11.75 0.75 12.1977 0.75 12.75V14.75C0.75 15.3023 1.19772 15.75 1.75 15.75H25.75C26.3023 15.75 26.75 15.3023 26.75 14.75V12.75C26.75 12.1977 26.3023 11.75 25.75 11.75Z" stroke="var(--stroke-0, #2F3438)" stroke-width="1.5" stroke-miterlimit="10"/>
<path id="Vector_2" d="M25.75 11.75V9.95049C25.75 9.2879 25.1524 8.75 24.4164 8.75H3.08364C2.34756 8.75 1.75 9.2879 1.75 9.95049V11.75" stroke="var(--stroke-0, #2F3438)" stroke-width="1.5" stroke-miterlimit="10"/>
<path id="Vector_3" d="M20.75 8.75V7.75C20.75 7.19807 20.1899 6.75 19.5 6.75H17C16.3101 6.75 15.75 7.19807 15.75 7.75V8.75" stroke="var(--stroke-0, #2F3438)" stroke-width="1.5" stroke-miterlimit="10"/>
<path id="Vector_4" d="M6.75 8.75V7.75C6.75 7.19807 7.31008 6.75 8 6.75H10.5C11.1899 6.75 11.75 7.19807 11.75 7.75V8.75" stroke="var(--stroke-0, #2F3438)" stroke-width="1.5" stroke-miterlimit="10"/>
<path id="Vector_5" d="M24.25 8.75V1.75C24.25 1.19772 23.8023 0.75 23.25 0.75H4.25C3.69772 0.75 3.25 1.19772 3.25 1.75V8.75" stroke="var(--stroke-0, #2F3438)" stroke-width="1.5" stroke-miterlimit="10"/>
<path id="Vector_6" d="M23.75 15.75V18.75" stroke="var(--stroke-0, #2F3438)" stroke-width="1.5" stroke-miterlimit="10" stroke-linecap="round"/>
<path id="Vector_7" d="M3.75 15.75V18.75" stroke="var(--stroke-0, #2F3438)" stroke-width="1.5" stroke-miterlimit="10" stroke-linecap="round"/>
</g>
</svg>
