<svg preserveAspectRatio="none" width="100%" height="100%" overflow="visible" style="display: block;" viewBox="0 0 25.02 25.5" fill="none" xmlns="http://www.w3.org/2000/svg">
<g id="Group 3030">
<g id="Group 3029">
<path id="Vector 3" d="M4.55 12.27H1.75C1.19772 12.27 0.75 12.7177 0.75 13.27V19.87C0.75 20.9746 1.64543 21.87 2.75 21.87H22.27C23.3746 21.87 24.27 20.9746 24.27 19.87V13.27C24.27 12.7177 23.8223 12.27 23.27 12.27H20.47C19.9177 12.27 19.47 12.7177 19.47 13.27V17.07H5.55V13.27C5.55 12.7177 5.10228 12.27 4.55 12.27Z" stroke="var(--stroke-0, #2F3438)" stroke-width="1.5" stroke-linejoin="round"/>
<path id="Rectangle 4226" d="M21.8702 12.27V3.75C21.8702 2.09315 20.5271 0.75 18.8702 0.75H6.15023C4.49338 0.75 3.15023 2.09315 3.15023 3.75V12.27" stroke="var(--stroke-0, #2F3438)" stroke-width="1.5"/>
<path id="Line 110" d="M3.83996 24.75C3.83996 25.1642 4.17574 25.5 4.58996 25.5C5.00417 25.5 5.33996 25.1642 5.33996 24.75L4.58996 24.75L3.83996 24.75ZM4.58996 21.87L3.83996 21.87L3.83996 24.75L4.58996 24.75L5.33996 24.75L5.33996 21.87L4.58996 21.87Z" fill="var(--stroke-0, #2F3438)"/>
<path id="Line 111" d="M20.1598 24.75C20.1598 25.1642 20.4956 25.5 20.9098 25.5C21.324 25.5 21.6598 25.1642 21.6598 24.75L20.9098 24.75L20.1598 24.75ZM20.9098 21.87L20.1598 21.87L20.1598 24.75L20.9098 24.75L21.6598 24.75L21.6598 21.87L20.9098 21.87Z" fill="var(--stroke-0, #2F3438)"/>
</g>
<circle id="Ellipse 153" cx="9.63027" cy="6.51" r="0.96" fill="var(--fill-0, #2F3438)"/>
<circle id="Ellipse 155" cx="9.63027" cy="12.27" r="0.96" fill="var(--fill-0, #2F3438)"/>
<circle id="Ellipse 154" cx="15.6778" cy="6.51" r="0.96" fill="var(--fill-0, #2F3438)"/>
<circle id="Ellipse 156" cx="15.6778" cy="12.27" r="0.96" fill="var(--fill-0, #2F3438)"/>
</g>
</svg>
