<svg preserveAspectRatio="none" width="100%" height="100%" overflow="visible" style="display: block;" viewBox="0 0 22.4005 25.2513" fill="none" xmlns="http://www.w3.org/2000/svg">
<g id="Group 2984">
<path id="Vector" d="M19.601 3.41757C19.601 1.94525 18.4057 0.75 16.9334 0.75C15.4611 0.75 14.2658 1.94525 14.2658 3.41757V5.08514C14.2658 5.63743 14.7136 6.08514 15.2658 6.08514H18.601C19.1533 6.08514 19.601 5.63743 19.601 5.08514V3.41757Z" stroke="var(--stroke-0, #2F3438)" stroke-width="1.5" stroke-miterlimit="10"/>
<path id="Line 109" d="M5.76493 24.5013H14.7649" stroke="var(--stroke-0, #2F3438)" stroke-width="1.5" stroke-linecap="round"/>
<path id="Vector_2" d="M19.601 6.08518L21.5427 9.97057C21.875 10.6355 21.3915 11.4176 20.6482 11.4176H13.2167C12.4732 11.4176 11.9897 10.6351 12.3224 9.97021L14.2659 6.08518" stroke="var(--stroke-0, #2F3438)" stroke-width="1.5" stroke-miterlimit="10"/>
<path id="Vector_3" d="M14.2658 11.4176C14.2658 12.8899 15.4611 14.0851 16.9334 14.0851C18.4057 14.0851 19.601 12.8899 19.601 11.4176" stroke="var(--stroke-0, #2F3438)" stroke-width="1.5" stroke-miterlimit="10"/>
<path id="Vector_4" d="M14.2659 2.7493L1.17528 11.9449C0.688615 12.2868 0.606098 12.9753 0.998203 13.4225L10.9328 24.7526" stroke="var(--stroke-0, #2F3438)" stroke-width="1.5" stroke-miterlimit="10"/>
</g>
</svg>
