<svg preserveAspectRatio="none" width="100%" height="100%" overflow="visible" style="display: block;" viewBox="0 0 23.5 28.6903" fill="none" xmlns="http://www.w3.org/2000/svg">
<g id="Group 3021">
<path id="Ellipse 140" d="M22.75 11.55C22.75 17.5147 17.8251 23.75 11.75 23.75C5.67487 23.75 0.75 17.5147 0.75 11.55C0.75 5.58533 5.67487 0.75 11.75 0.75C17.8251 0.75 22.75 5.58533 22.75 11.55Z" stroke="var(--stroke-0, #2F3438)" stroke-width="1.5" stroke-linecap="round"/>
<path id="Ellipse 141" d="M3.75 13.75C5.09728 16.9296 8.17222 19.75 11.75 19.75C15.3278 19.75 18.4027 16.9296 19.75 13.75" stroke="var(--stroke-0, #2F3438)" stroke-width="1.5" stroke-linecap="round"/>
<path id="Ellipse 142" d="M18.5 15.5C18.5 11.7721 15.4779 8.75 11.75 8.75C8.02208 8.75 5 11.7721 5 15.5" stroke="var(--stroke-0, #2F3438)" stroke-width="1.5" stroke-linecap="round"/>
<g id="Group 3020">
<path id="Line 102" d="M5.47119 21.9275L3.47119 27.9561" stroke="var(--stroke-0, #2F3438)" stroke-width="1.5" stroke-linecap="round"/>
<path id="Line 103" d="M17.75 21.75L19.75 27.7786" stroke="var(--stroke-0, #2F3438)" stroke-width="1.5" stroke-linecap="round"/>
</g>
</g>
</svg>
