<svg preserveAspectRatio="none" width="100%" height="100%" overflow="visible" style="display: block;" viewBox="0 0 13.1998 14.7998" fill="none" xmlns="http://www.w3.org/2000/svg">
<path id="Vector (Stroke)" fill-rule="evenodd" clip-rule="evenodd" d="M12.5998 0C12.9312 0 13.1998 0.268629 13.1998 0.6V4.6C13.1998 4.93137 12.9312 5.2 12.5998 5.2H8.59984C8.26847 5.2 7.99984 4.93137 7.99984 4.6C7.99984 4.26863 8.26847 4 8.59984 4H11.3818C10.6964 3.20963 9.80734 2.61657 8.80659 2.28851C7.62797 1.90214 6.35632 1.90398 5.17857 2.29348C4.00085 2.68298 2.97903 3.43961 2.26317 4.45254C1.54732 5.46543 1.17529 6.68119 1.20127 7.92142C1.22725 9.16159 1.65004 10.3608 2.40771 11.3429C3.16539 12.325 4.21774 13.0381 5.4107 13.3779C6.60367 13.7177 7.87425 13.6662 9.03571 13.2308C10.1972 12.7954 11.1885 11.9991 11.8641 10.9588C12.0445 10.6809 12.4161 10.6019 12.694 10.7823C12.972 10.9628 13.0509 11.3344 12.8705 11.6123C12.0551 12.8679 10.8587 13.8289 9.45694 14.3544C8.05514 14.8799 6.52171 14.9421 5.08195 14.532C3.64219 14.1219 2.37206 13.2612 1.4576 12.0759C0.543128 10.8906 0.0328878 9.44323 0.00153697 7.94655C-0.0298127 6.44992 0.41913 4.98259 1.2832 3.75996C2.14724 2.53737 3.3805 1.62422 4.80178 1.15417C6.22305 0.684134 7.75777 0.681854 9.1804 1.14822C10.2522 1.49957 11.2179 2.10279 11.9998 2.90082V0.6C11.9998 0.268629 12.2685 0 12.5998 0Z" fill="var(--fill-0, #2F3438)"/>
</svg>
