<svg preserveAspectRatio="none" width="100%" height="100%" overflow="visible" style="display: block;" viewBox="0 0 16 16" fill="none" xmlns="http://www.w3.org/2000/svg">
<g id="delete_outline_16">
<g id="Vector">
<path d="M6 1.25C5.58579 1.25 5.25 1.58579 5.25 2C5.25 2.41421 5.58579 2.75 6 2.75H10C10.4142 2.75 10.75 2.41421 10.75 2C10.75 1.58579 10.4142 1.25 10 1.25H6Z" fill="var(--fill-0, #F05656)"/>
<path d="M6.33325 6.36108C6.74747 6.36108 7.08325 6.69687 7.08325 7.11108V11.1111C7.08325 11.5253 6.74747 11.8611 6.33325 11.8611C5.91904 11.8611 5.58325 11.5253 5.58325 11.1111V7.11108C5.58325 6.69687 5.91904 6.36108 6.33325 6.36108Z" fill="var(--fill-0, #F05656)"/>
<path d="M10.4167 7.11108C10.4167 6.69687 10.081 6.36108 9.66675 6.36108C9.25253 6.36108 8.91675 6.69687 8.91675 7.11108V11.1111C8.91675 11.5253 9.25253 11.8611 9.66675 11.8611C10.081 11.8611 10.4167 11.5253 10.4167 11.1111V7.11108Z" fill="var(--fill-0, #F05656)"/>
<path fill-rule="evenodd" clip-rule="evenodd" d="M1.25 4.33337C1.25 3.91916 1.58579 3.58337 2 3.58337H14C14.4142 3.58337 14.75 3.91916 14.75 4.33337C14.75 4.74759 14.4142 5.08337 14 5.08337H13.3334V12.6666C13.3334 13.7712 12.438 14.6666 11.3334 14.6666H4.66675C3.56218 14.6666 2.66675 13.7712 2.66675 12.6666V5.08337H2C1.58579 5.08337 1.25 4.74759 1.25 4.33337ZM11.8334 5.23328H4.16675V12.6666C4.16675 12.9428 4.39061 13.1666 4.66675 13.1666H11.3334C11.6096 13.1666 11.8334 12.9428 11.8334 12.6666V5.23328Z" fill="var(--fill-0, #F05656)"/>
</g>
</g>
</svg>
