<svg preserveAspectRatio="none" width="100%" height="100%" overflow="visible" style="display: block;" viewBox="0 0 17.55 17.55" fill="none" xmlns="http://www.w3.org/2000/svg">
<path id="Vector (Stroke)" fill-rule="evenodd" clip-rule="evenodd" d="M8.2977 0.197703C8.56131 -0.065901 8.98869 -0.065901 9.2523 0.197703L11.9523 2.8977C12.2159 3.16131 12.2159 3.58869 11.9523 3.8523C11.6887 4.1159 11.2613 4.1159 10.9977 3.8523L9.45 2.30459V8.1H15.2454L13.6977 6.5523C13.4341 6.28869 13.4341 5.86131 13.6977 5.5977C13.9613 5.3341 14.3887 5.3341 14.6523 5.5977L17.3523 8.2977C17.6159 8.56131 17.6159 8.98869 17.3523 9.2523L14.6523 11.9523C14.3887 12.2159 13.9613 12.2159 13.6977 11.9523C13.4341 11.6887 13.4341 11.2613 13.6977 10.9977L15.2454 9.45H9.45V15.2454L10.9977 13.6977C11.2613 13.4341 11.6887 13.4341 11.9523 13.6977C12.2159 13.9613 12.2159 14.3887 11.9523 14.6523L9.2523 17.3523C9.12571 17.4789 8.95402 17.55 8.775 17.55C8.59598 17.55 8.42429 17.4789 8.2977 17.3523L5.5977 14.6523C5.3341 14.3887 5.3341 13.9613 5.5977 13.6977C5.86131 13.4341 6.28869 13.4341 6.5523 13.6977L8.1 15.2454V9.45H2.30459L3.8523 10.9977C4.1159 11.2613 4.1159 11.6887 3.8523 11.9523C3.58869 12.2159 3.16131 12.2159 2.8977 11.9523L0.197703 9.2523C-0.065901 8.98869 -0.065901 8.56131 0.197703 8.2977L2.8977 5.5977C3.16131 5.3341 3.58869 5.3341 3.8523 5.5977C4.1159 5.86131 4.1159 6.28869 3.8523 6.5523L2.30459 8.1H8.1V2.30459L6.5523 3.8523C6.28869 4.1159 5.86131 4.1159 5.5977 3.8523C5.3341 3.58869 5.3341 3.16131 5.5977 2.8977L8.2977 0.197703Z" fill="var(--fill-0, #2F3438)"/>
</svg>
