<svg preserveAspectRatio="none" width="100%" height="100%" overflow="visible" style="display: block;" viewBox="0 0 13.1998 14.7998" fill="none" xmlns="http://www.w3.org/2000/svg">
<path id="Vector (Stroke)" fill-rule="evenodd" clip-rule="evenodd" d="M0.6 0C0.268629 0 0 0.268629 0 0.6V4.6C0 4.93137 0.268629 5.2 0.6 5.2H4.6C4.93137 5.2 5.2 4.93137 5.2 4.6C5.2 4.26863 4.93137 4 4.6 4H1.81804C2.50343 3.20963 3.3925 2.61657 4.39325 2.28851C5.57187 1.90214 6.84353 1.90398 8.02127 2.29348C9.199 2.68298 10.2208 3.43961 10.9367 4.45254C11.6525 5.46543 12.0245 6.68119 11.9986 7.92142C11.9726 9.16159 11.5498 10.3608 10.7921 11.3429C10.0345 12.325 8.98211 13.0381 7.78914 13.3779C6.59617 13.7177 5.32559 13.6662 4.16413 13.2308C3.00265 12.7954 2.01136 11.9991 1.33578 10.9588C1.15531 10.6809 0.783709 10.6019 0.505798 10.7823C0.227887 10.9628 0.148901 11.3344 0.329379 11.6123C1.14473 12.8679 2.34112 13.8289 3.7429 14.3544C5.1447 14.8799 6.67813 14.9421 8.11789 14.532C9.55765 14.1219 10.8278 13.2612 11.7422 12.0759C12.6567 10.8906 13.167 9.44323 13.1983 7.94655C13.2297 6.44992 12.7807 4.98259 11.9166 3.75996C11.0526 2.53737 9.81935 1.62422 8.39806 1.15417C6.97679 0.684134 5.44207 0.681854 4.01944 1.14822C2.94765 1.49957 1.98196 2.10279 1.2 2.90082V0.6C1.2 0.268629 0.93137 0 0.6 0Z" fill="var(--fill-0, #2F3438)"/>
</svg>
