<svg preserveAspectRatio="none" width="100%" height="100%" overflow="visible" style="display: block;" viewBox="0 0 6.75 17.55" fill="none" xmlns="http://www.w3.org/2000/svg">
<path id="Vector (Stroke)" fill-rule="evenodd" clip-rule="evenodd" d="M2.8977 0.197703C3.16131 -0.065901 3.58869 -0.065901 3.8523 0.197703L6.5523 2.8977C6.8159 3.16131 6.8159 3.58869 6.5523 3.8523C6.28869 4.1159 5.86131 4.1159 5.5977 3.8523L4.05 2.30459V15.2454L5.5977 13.6977C5.86131 13.4341 6.28869 13.4341 6.5523 13.6977C6.8159 13.9613 6.8159 14.3887 6.5523 14.6523L3.8523 17.3523C3.72571 17.4789 3.55402 17.55 3.375 17.55C3.19598 17.55 3.02429 17.4789 2.8977 17.3523L0.197703 14.6523C-0.065901 14.3887 -0.065901 13.9613 0.197703 13.6977C0.461307 13.4341 0.888693 13.4341 1.1523 13.6977L2.7 15.2454V2.30459L1.1523 3.8523C0.888693 4.1159 0.461307 4.1159 0.197703 3.8523C-0.065901 3.58869 -0.065901 3.16131 0.197703 2.8977L2.8977 0.197703Z" fill="var(--fill-0, #2F3438)"/>
</svg>
