<svg preserveAspectRatio="none" width="100%" height="100%" overflow="visible" style="display: block;" viewBox="0 0 16 16" fill="none" xmlns="http://www.w3.org/2000/svg">
<g id="filter_new_outline_16">
<g id="Vector">
<path fill-rule="evenodd" clip-rule="evenodd" d="M14.8667 5.66667C14.8667 6.10849 14.5086 6.46667 14.0667 6.46667L7.7334 6.46667C7.29157 6.46667 6.9334 6.10849 6.9334 5.66667C6.9334 5.22484 7.29157 4.86667 7.7334 4.86667H14.0667C14.5086 4.86667 14.8667 5.22484 14.8667 5.66667Z" fill="var(--fill-0, #2F3438)"/>
<path fill-rule="evenodd" clip-rule="evenodd" d="M5.13333 5.66667C5.13333 6.10849 4.77516 6.46667 4.33333 6.46667H1.93333C1.49151 6.46667 1.13333 6.10849 1.13333 5.66667C1.13333 5.22484 1.49151 4.86667 1.93333 4.86667H4.33333C4.77516 4.86667 5.13333 5.22484 5.13333 5.66667Z" fill="var(--fill-0, #2F3438)"/>
<path fill-rule="evenodd" clip-rule="evenodd" d="M6.03 6.30005C6.4166 6.30005 6.73 5.98665 6.73 5.60005C6.73 5.21345 6.4166 4.90005 6.03 4.90005C5.6434 4.90005 5.33 5.21345 5.33 5.60005C5.33 5.98665 5.6434 6.30005 6.03 6.30005ZM6.03 7.90005C7.30025 7.90005 8.33 6.8703 8.33 5.60005C8.33 4.32979 7.30025 3.30005 6.03 3.30005C4.75975 3.30005 3.73 4.32979 3.73 5.60005C3.73 6.8703 4.75975 7.90005 6.03 7.90005Z" fill="var(--fill-0, #2F3438)"/>
<path fill-rule="evenodd" clip-rule="evenodd" d="M14.8667 10.3333C14.8667 10.7752 14.5085 11.1333 14.0667 11.1333H12C11.5582 11.1333 11.2 10.7752 11.2 10.3333C11.2 9.89151 11.5582 9.53333 12 9.53333H14.0667C14.5085 9.53333 14.8667 9.89151 14.8667 10.3333Z" fill="var(--fill-0, #2F3438)"/>
<path fill-rule="evenodd" clip-rule="evenodd" d="M9.13333 10.3333C9.13333 10.7752 8.77516 11.1333 8.33333 11.1333H1.93333C1.49151 11.1333 1.13333 10.7752 1.13333 10.3333C1.13333 9.89151 1.49151 9.53333 1.93333 9.53333H8.33333C8.77516 9.53333 9.13333 9.89151 9.13333 10.3333Z" fill="var(--fill-0, #2F3438)"/>
<path fill-rule="evenodd" clip-rule="evenodd" d="M9.97 11C10.3566 11 10.67 10.6866 10.67 10.3C10.67 9.9134 10.3566 9.6 9.97 9.6C9.5834 9.6 9.27 9.9134 9.27 10.3C9.27 10.6866 9.5834 11 9.97 11ZM9.97 12.6C11.2403 12.6 12.27 11.5703 12.27 10.3C12.27 9.02975 11.2403 8 9.97 8C8.69974 8 7.67 9.02975 7.67 10.3C7.67 11.5703 8.69974 12.6 9.97 12.6Z" fill="var(--fill-0, #2F3438)"/>
</g>
</g>
</svg>
