<svg preserveAspectRatio="xMidYMid meet" width="100%" height="100%" overflow="visible" style="display: block;" viewBox="0 0 18 20" fill="none" xmlns="http://www.w3.org/2000/svg">
<g id="Vector">
<path fill-rule="evenodd" clip-rule="evenodd" d="M15 1.8H3C2.33726 1.8 1.8 2.33726 1.8 3V17C1.8 17.6627 2.33726 18.2 3 18.2H10C13.4242 18.2 16.2 15.4242 16.2 12V3C16.2 2.33726 15.6627 1.8 15 1.8ZM3 0C1.34315 0 0 1.34315 0 3V17C0 18.6569 1.34315 20 3 20H10C14.4183 20 18 16.4183 18 12V3C18 1.34315 16.6569 0 15 0H3Z" fill="var(--fill-0, white)"/>
<path fill-rule="evenodd" clip-rule="evenodd" d="M5 5.6C5 5.10294 5.40294 4.7 5.9 4.7H12.1C12.5971 4.7 13 5.10294 13 5.6C13 6.09706 12.5971 6.5 12.1 6.5H5.9C5.40294 6.5 5 6.09706 5 5.6Z" fill="var(--fill-0, white)"/>
<path fill-rule="evenodd" clip-rule="evenodd" d="M5 9.6C5 9.10294 5.40294 8.7 5.9 8.7H12.1C12.5971 8.7 13 9.10294 13 9.6C13 10.0971 12.5971 10.5 12.1 10.5H5.9C5.40294 10.5 5 10.0971 5 9.6Z" fill="var(--fill-0, white)"/>
<path fill-rule="evenodd" clip-rule="evenodd" d="M5 13.6C5 13.1029 5.40294 12.7 5.9 12.7H10.1C10.5971 12.7 11 13.1029 11 13.6C11 14.0971 10.5971 14.5 10.1 14.5H5.9C5.40294 14.5 5 14.0971 5 13.6Z" fill="var(--fill-0, white)"/>
</g>
</svg>
