<svg preserveAspectRatio="xMidYMid meet" width="100%" height="100%" overflow="visible" style="display: block;" viewBox="0 0 19.8 18.9" fill="none" xmlns="http://www.w3.org/2000/svg">
<g id="Group 628531">
<path id="Ellipse 159" d="M15.3164 9.00682C16.8342 9.64227 17.9511 10.5284 18.5068 11.5381C19.0624 12.5479 19.0285 13.6295 18.4097 14.6278C17.7909 15.6262 16.6191 16.4901 15.0622 17.0958C13.5053 17.7014 11.6433 18.0177 9.74295 17.9992C7.84262 17.9808 6.00158 17.6286 4.48368 16.9932C2.96579 16.3577 1.84896 15.4716 1.29327 14.4619C0.737588 13.4521 0.771569 12.3705 1.39035 11.3722C2.00913 10.3738 3.18093 9.50987 4.73782 8.90424" stroke="var(--stroke-0, white)" stroke-width="1.8" stroke-linecap="round"/>
<path id="Line 112" d="M9.00002 12C9.00002 12.4971 9.40296 12.9 9.90002 12.9C10.3971 12.9 10.8 12.4971 10.8 12H9.90002H9.00002ZM9.90002 6H9.00002V12H9.90002H10.8V6H9.90002Z" fill="var(--stroke-0, white)"/>
<circle id="Ellipse 158" cx="9.90002" cy="3.5" r="2.6" stroke="var(--stroke-0, white)" stroke-width="1.8"/>
</g>
</svg>
